<svg width="457" height="95" viewBox="0 0 457 95" fill="none" xmlns="http://www.w3.org/2000/svg">
<path d="M92.456 68.016L100.808 70.416V72H67.352V70.416L75.944 68.4L71.48 9.36L72.248 9.456L47.528 72.576H40.088L14.648 10.32L15.464 10.176L11.816 68.544L20.552 70.416V72H0.248V70.416L8.264 68.544L12.008 8.544L3.272 4.944V3.36H29.192L51.176 57.744H49.64L70.808 3.36H96.632V4.944L87.512 7.2L92.456 68.016ZM133.616 59.808L126.656 75.408L101.408 26.304L95.936 24.384V22.848H123.152V24.432L117.008 26.016L133.616 59.808ZM110.72 94.128C108.448 94.128 106.576 93.52 105.104 92.304C103.664 91.12 102.944 89.392 102.944 87.12C102.944 86.096 103.12 85.216 103.472 84.48C103.824 83.776 104.256 83.216 104.768 82.8C105.28 82.416 105.776 82.224 106.256 82.224C106.544 82.224 107.04 82.4 107.744 82.752C108.48 83.136 109.376 83.504 110.432 83.856C111.52 84.208 112.752 84.384 114.128 84.384C115.824 84.384 117.28 84.192 118.496 83.808C119.744 83.456 120.832 82.8 121.76 81.84C122.688 80.88 123.552 79.52 124.352 77.76L127.28 71.232L131.264 61.824L143.84 25.776L137.6 24.432V22.848H153.296V24.432L147.776 25.776L128.096 76.752C126.368 81.168 124.624 84.624 122.864 87.12C121.104 89.648 119.232 91.44 117.248 92.496C115.296 93.584 113.12 94.128 110.72 94.128ZM196.083 70.464C198.227 70.464 200.323 70.096 202.371 69.36C204.419 68.624 206.419 67.44 208.371 65.808L206.115 67.968L216.243 52.272H217.731L213.747 70.608C210.323 71.568 207.075 72.224 204.003 72.576C200.963 72.96 197.619 73.152 193.971 73.152C188.275 73.152 183.059 72.4 178.323 70.896C173.587 69.392 169.475 67.12 165.987 64.08C162.531 61.04 159.859 57.264 157.971 52.752C156.083 48.24 155.139 42.992 155.139 37.008C155.139 30.128 156.739 24.08 159.939 18.864C163.171 13.616 167.635 9.536 173.331 6.62399C179.059 3.67999 185.683 2.20799 193.203 2.20799C195.955 2.20799 198.499 2.352 200.835 2.64C203.203 2.928 205.779 3.392 208.563 4.032L204.915 5.04L211.299 0.239994H212.019L216.867 25.44L215.379 25.776L204.435 8.16L207.507 11.808C204.659 9.312 201.987 7.6 199.491 6.672C197.027 5.712 194.483 5.232 191.859 5.232C189.075 5.232 186.467 5.744 184.035 6.768C181.603 7.792 179.459 9.456 177.603 11.76C175.747 14.032 174.291 17.072 173.235 20.88C172.211 24.656 171.699 29.328 171.699 34.896C171.699 40.56 172.339 45.6 173.619 50.016C174.899 54.4 176.659 58.112 178.899 61.152C181.171 64.192 183.779 66.512 186.723 68.112C189.667 69.68 192.787 70.464 196.083 70.464ZM252.884 70.56L258.404 69.12V39.264C258.404 37.376 258.1 35.84 257.492 34.656C256.884 33.472 255.972 32.592 254.756 32.016C253.54 31.44 251.956 31.152 250.004 31.152C248.116 31.152 246.26 31.424 244.436 31.968C242.644 32.48 240.98 33.104 239.444 33.84L239.06 32.928C241.556 30.528 243.7 28.592 245.492 27.12C247.284 25.648 248.884 24.544 250.292 23.808C251.732 23.04 253.124 22.528 254.468 22.272C255.844 22.016 257.348 21.888 258.98 21.888C263.524 21.888 266.884 23.136 269.06 25.632C271.268 28.096 272.372 31.808 272.372 36.768V69.024L278.084 70.56V72H252.884V70.56ZM246.452 72H221.3V70.56L226.964 69.024V12.48C226.548 12.16 225.972 11.728 225.236 11.184C224.5 10.64 223.62 9.984 222.596 9.216C221.572 8.448 220.436 7.6 219.188 6.672V5.51999L240.308 0.575998H240.98V22.272V69.12L246.452 70.56V72ZM306.553 70.32C308.953 70.32 310.921 69.536 312.457 67.968C313.993 66.4 315.113 63.984 315.817 60.72C316.553 57.456 316.921 53.312 316.921 48.288C316.921 43.04 316.569 38.656 315.865 35.136C315.161 31.616 314.041 28.976 312.505 27.216C311.001 25.424 309.033 24.528 306.601 24.528C304.201 24.528 302.233 25.312 300.697 26.88C299.161 28.448 298.025 30.864 297.289 34.128C296.553 37.392 296.185 41.536 296.185 46.56C296.185 51.776 296.537 56.16 297.241 59.712C297.945 63.232 299.049 65.888 300.553 67.68C302.089 69.44 304.089 70.32 306.553 70.32ZM306.121 73.152C301.353 73.152 297.113 72.064 293.401 69.888C289.689 67.712 286.761 64.704 284.617 60.864C282.505 56.992 281.449 52.544 281.449 47.52C281.449 42.432 282.569 37.952 284.809 34.08C287.049 30.176 290.089 27.136 293.929 24.96C297.801 22.784 302.153 21.696 306.985 21.696C311.849 21.696 316.137 22.784 319.849 24.96C323.561 27.104 326.457 30.112 328.537 33.984C330.649 37.824 331.705 42.272 331.705 47.328C331.705 52.416 330.553 56.912 328.249 60.816C325.977 64.688 322.905 67.712 319.033 69.888C315.193 72.064 310.889 73.152 306.121 73.152ZM348.355 15.936C345.955 15.936 344.051 15.152 342.643 13.584C341.267 12.016 340.579 10.224 340.579 8.20799C340.579 6.224 341.267 4.528 342.643 3.12C344.051 1.712 345.955 1.008 348.355 1.008C350.755 1.008 352.611 1.712 353.923 3.12C355.267 4.528 355.939 6.224 355.939 8.20799C355.939 10.224 355.267 12.016 353.923 13.584C352.611 15.152 350.755 15.936 348.355 15.936ZM355.939 21.36V31.2V69.12L361.459 70.56V72H336.259V70.56L341.971 69.024V33.312C341.619 32.992 341.139 32.576 340.531 32.064C339.923 31.552 339.219 30.944 338.419 30.24C337.619 29.536 336.723 28.752 335.731 27.888V26.688L355.315 21.36H355.939ZM392 21.696C395.744 21.696 398.752 22.096 401.024 22.896C403.328 23.696 404.992 24.72 406.016 25.968C407.04 27.184 407.552 28.464 407.552 29.808C407.552 30.928 407.28 31.92 406.736 32.784C406.224 33.616 405.536 34.256 404.672 34.704C403.84 35.152 402.896 35.376 401.84 35.376C401.52 35.376 401.024 35.024 400.352 34.32C399.712 33.584 398.944 32.688 398.048 31.632C397.152 30.576 396.144 29.52 395.024 28.464C393.936 27.376 392.8 26.48 391.616 25.776C390.432 25.04 389.232 24.672 388.016 24.672C386.192 24.672 384.576 25.216 383.168 26.304C381.76 27.392 380.656 29.168 379.856 31.632C379.088 34.064 378.704 37.312 378.704 41.376C378.704 46.72 379.296 51.04 380.48 54.336C381.696 57.6 383.456 59.968 385.76 61.44C388.064 62.88 390.896 63.6 394.256 63.6C396.88 63.6 399.28 63.152 401.456 62.256C403.632 61.328 405.696 59.76 407.648 57.552L408.656 58.416C406.576 62.096 404.48 65.008 402.368 67.152C400.256 69.296 398.032 70.832 395.696 71.76C393.392 72.688 390.848 73.152 388.064 73.152C383.616 73.152 379.664 72.192 376.208 70.272C372.784 68.32 370.096 65.504 368.144 61.824C366.192 58.112 365.216 53.616 365.216 48.336C365.216 44.496 365.888 40.96 367.232 37.728C368.608 34.464 370.512 31.632 372.944 29.232C375.408 26.832 378.256 24.976 381.488 23.664C384.752 22.352 388.256 21.696 392 21.696ZM436.457 21.696C440.265 21.696 443.529 22.464 446.249 24C448.969 25.504 451.113 27.712 452.681 30.624C454.249 33.504 455.177 37.024 455.465 41.184H423.209V37.728H448.889L442.649 39.936C442.393 36.16 441.945 33.168 441.305 30.96C440.697 28.72 439.865 27.12 438.809 26.16C437.753 25.168 436.441 24.672 434.873 24.672C432.889 24.672 431.177 25.264 429.737 26.448C428.329 27.632 427.257 29.52 426.521 32.112C425.785 34.704 425.417 38.096 425.417 42.288C425.417 47.376 426.041 51.488 427.289 54.624C428.537 57.76 430.377 60.048 432.809 61.488C435.241 62.896 438.217 63.6 441.737 63.6C443.497 63.6 445.161 63.392 446.729 62.976C448.297 62.56 449.801 61.888 451.241 60.96C452.713 60.032 454.105 58.832 455.417 57.36L456.425 58.176C454.281 61.92 452.121 64.88 449.945 67.056C447.769 69.232 445.481 70.8 443.081 71.76C440.713 72.688 438.105 73.152 435.257 73.152C430.713 73.152 426.681 72.192 423.161 70.272C419.641 68.352 416.889 65.552 414.905 61.872C412.921 58.16 411.929 53.664 411.929 48.384C411.929 43.584 412.873 39.168 414.761 35.136C416.649 31.072 419.417 27.824 423.065 25.392C426.713 22.928 431.177 21.696 436.457 21.696Z" fill="#FFF1F1"/>
</svg>
