<svg width="140" height="32" viewBox="0 0 140 32" fill="none" xmlns="http://www.w3.org/2000/svg">
<path d="M28.56 21.544L31.136 22.392V23H22.368V22.392L24.976 21.608L23.664 3.576L23.888 3.624L15.6 23.24H14.176L5.648 3.832L5.872 3.784L4.784 21.56L7.44 22.392V23H0.656V22.392L3.248 21.56L4.576 2.792L1.888 1.8V1.192H8.384L16.192 19.16H15.76L23.392 1.192H29.712V1.8L27.056 2.616L28.56 21.544ZM40.638 20.184L39.022 23.976L32.35 9.992L30.398 9.256V8.6H37.886V9.256L35.838 9.896L40.638 20.184ZM34.222 31.208C33.6033 31.208 33.086 31.0373 32.67 30.696C32.2647 30.3547 32.062 29.8853 32.062 29.288C32.062 28.9893 32.1207 28.728 32.238 28.504C32.366 28.28 32.526 28.104 32.718 27.976C32.91 27.8587 33.102 27.8 33.294 27.8C33.486 27.8 33.678 27.848 33.87 27.944C34.062 28.0507 34.2807 28.152 34.526 28.248C34.7713 28.3547 35.054 28.408 35.374 28.408C35.7047 28.408 35.998 28.3493 36.254 28.232C36.5207 28.1253 36.766 27.9227 36.99 27.624C37.2247 27.336 37.4647 26.9147 37.71 26.36L39.39 22.28L40.206 20.184L43.886 9.816L41.854 9.256V8.6H47.134V9.256L45.406 9.816L39.102 26.072C38.59 27.4053 38.0833 28.4453 37.582 29.192C37.0913 29.9387 36.574 30.4613 36.03 30.76C35.4967 31.0587 34.894 31.208 34.222 31.208ZM61.0185 21.96C61.7972 21.96 62.5492 21.8747 63.2745 21.704C64.0105 21.5333 64.7625 21.2507 65.5305 20.856L64.7305 21.528L67.3225 16.952H68.0905L67.3225 22.216C66.4372 22.568 65.4185 22.8453 64.2665 23.048C63.1252 23.2507 61.9038 23.352 60.6025 23.352C58.7785 23.352 57.1145 23.1067 55.6105 22.616C54.1065 22.1253 52.8105 21.4053 51.7225 20.456C50.6345 19.496 49.7972 18.3227 49.2105 16.936C48.6238 15.5493 48.3305 13.9653 48.3305 12.184C48.3305 9.90133 48.8372 7.912 49.8505 6.216C50.8745 4.50933 52.3305 3.18667 54.2185 2.248C56.1065 1.30933 58.3465 0.839998 60.9385 0.839998C61.6638 0.839998 62.3732 0.882665 63.0665 0.967999C63.7705 1.05333 64.5812 1.20267 65.4985 1.416L64.5065 1.624L66.5065 0.199999H66.8585L67.9785 7.88L67.2585 8.04L64.2825 2.904L65.1465 3.8C64.2398 3.23467 63.4025 2.84 62.6345 2.616C61.8772 2.392 61.0772 2.28 60.2345 2.28C58.9438 2.28 57.7918 2.46667 56.7785 2.84C55.7652 3.21333 54.9065 3.768 54.2025 4.504C53.5092 5.24 52.9758 6.16267 52.6025 7.272C52.2292 8.38133 52.0425 9.672 52.0425 11.144C52.0425 12.9147 52.2665 14.472 52.7145 15.816C53.1732 17.16 53.8078 18.2907 54.6185 19.208C55.4398 20.1147 56.3945 20.8027 57.4825 21.272C58.5705 21.7307 59.7492 21.96 61.0185 21.96ZM79.0728 22.44L81.2648 21.752V13.512C81.2648 12.936 81.1528 12.4507 80.9288 12.056C80.7048 11.6507 80.3688 11.3467 79.9208 11.144C79.4834 10.9307 78.9341 10.824 78.2728 10.824C77.4941 10.824 76.7688 10.952 76.0968 11.208C75.4354 11.464 74.9341 11.768 74.5928 12.12L74.0808 11.624C74.7421 10.9627 75.3394 10.4133 75.8728 9.976C76.4168 9.53867 76.9288 9.19733 77.4088 8.952C77.8994 8.696 78.3848 8.52 78.8648 8.424C79.3448 8.31733 79.8568 8.264 80.4008 8.264C81.7874 8.264 82.8061 8.68533 83.4568 9.528C84.1181 10.36 84.4488 11.6613 84.4488 13.432V21.72L86.7208 22.44V23H79.0728V22.44ZM77.1528 23H69.4728V22.44L71.7128 21.72V3.464C71.5634 3.304 71.3714 3.13867 71.1368 2.968C70.9128 2.79733 70.6408 2.62133 70.3208 2.44C70.0008 2.25867 69.6328 2.072 69.2168 1.88V1.464L74.7208 -0.00800133H75.0408L74.8968 4.344V21.72L77.1528 22.44V23ZM95.216 22.136C95.984 22.136 96.656 21.928 97.232 21.512C97.808 21.096 98.256 20.4507 98.576 19.576C98.896 18.7013 99.056 17.576 99.056 16.2C99.056 14.728 98.896 13.496 98.576 12.504C98.2667 11.5013 97.8187 10.744 97.232 10.232C96.656 9.72 95.952 9.464 95.12 9.464C94.352 9.464 93.68 9.672 93.104 10.088C92.528 10.504 92.08 11.1547 91.76 12.04C91.4507 12.9147 91.296 14.04 91.296 15.416C91.296 16.8773 91.4507 18.1093 91.76 19.112C92.0693 20.104 92.5173 20.856 93.104 21.368C93.6907 21.88 94.3947 22.136 95.216 22.136ZM95.088 23.352C93.6587 23.352 92.3947 23.0373 91.296 22.408C90.208 21.7787 89.3547 20.9093 88.736 19.8C88.128 18.68 87.824 17.3893 87.824 15.928C87.824 14.4453 88.144 13.128 88.784 11.976C89.4347 10.8133 90.32 9.90133 91.44 9.24C92.56 8.57867 93.8293 8.248 95.248 8.248C96.688 8.248 97.952 8.56267 99.04 9.192C100.139 9.82133 100.992 10.696 101.6 11.816C102.208 12.9253 102.512 14.2107 102.512 15.672C102.512 17.1653 102.187 18.4933 101.536 19.656C100.885 20.808 100 21.7147 98.88 22.376C97.7707 23.0267 96.5067 23.352 95.088 23.352ZM107.786 4.392C107.136 4.392 106.608 4.17867 106.202 3.752C105.797 3.31467 105.594 2.792 105.594 2.184C105.594 1.58666 105.797 1.08 106.202 0.664C106.608 0.247999 107.136 0.039999 107.786 0.039999C108.448 0.039999 108.976 0.247999 109.37 0.664C109.765 1.08 109.962 1.58666 109.962 2.184C109.962 2.792 109.765 3.31467 109.37 3.752C108.976 4.17867 108.448 4.392 107.786 4.392ZM109.626 8.216L109.53 11.128V21.72L111.786 22.44V23H104.106V22.44L106.346 21.72V11.496C106.229 11.3573 106.053 11.208 105.818 11.048C105.584 10.888 105.317 10.728 105.018 10.568C104.72 10.3973 104.41 10.2373 104.09 10.088V9.608L109.274 8.216H109.626ZM121.123 8.248C122.104 8.248 122.888 8.35467 123.475 8.568C124.062 8.78133 124.488 9.05333 124.755 9.384C125.022 9.704 125.155 10.0347 125.155 10.376C125.155 10.7067 125.086 10.9947 124.947 11.24C124.808 11.4853 124.611 11.6773 124.355 11.816C124.099 11.9547 123.811 12.024 123.491 12.024C123.224 12.024 122.968 11.944 122.723 11.784C122.478 11.6133 122.232 11.4107 121.987 11.176C121.752 10.9307 121.507 10.6853 121.251 10.44C121.006 10.1947 120.744 9.992 120.467 9.832C120.19 9.672 119.886 9.592 119.555 9.592C118.968 9.592 118.419 9.768 117.907 10.12C117.395 10.4613 116.979 11 116.659 11.736C116.35 12.4613 116.195 13.3947 116.195 14.536C116.195 15.9333 116.398 17.112 116.803 18.072C117.219 19.032 117.811 19.7573 118.579 20.248C119.347 20.728 120.264 20.968 121.331 20.968C122.003 20.968 122.643 20.84 123.251 20.584C123.87 20.328 124.451 19.9387 124.995 19.416L125.395 19.864C124.819 20.6853 124.227 21.352 123.619 21.864C123.022 22.376 122.392 22.7547 121.731 23C121.08 23.2347 120.382 23.352 119.635 23.352C118.344 23.352 117.203 23.048 116.211 22.44C115.23 21.832 114.456 20.9893 113.891 19.912C113.336 18.8347 113.059 17.5867 113.059 16.168C113.059 15.0693 113.246 14.0453 113.619 13.096C113.992 12.136 114.526 11.2933 115.219 10.568C115.912 9.84267 116.755 9.27733 117.747 8.872C118.75 8.456 119.875 8.248 121.123 8.248ZM133.683 8.248C134.803 8.248 135.768 8.488 136.579 8.968C137.39 9.448 138.03 10.1467 138.499 11.064C138.979 11.9813 139.272 13.0907 139.379 14.392H129.283L129.315 13.272L137.603 12.968L136.147 13.704C136.072 12.7867 135.923 12.0187 135.699 11.4C135.486 10.7707 135.187 10.296 134.803 9.976C134.419 9.64533 133.934 9.48 133.347 9.48C132.654 9.48 132.046 9.67733 131.523 10.072C131 10.4667 130.595 11.064 130.307 11.864C130.019 12.664 129.875 13.672 129.875 14.888C129.875 16.2 130.099 17.3093 130.547 18.216C130.995 19.1227 131.624 19.8107 132.435 20.28C133.256 20.7387 134.222 20.968 135.331 20.968C135.79 20.968 136.232 20.9147 136.659 20.808C137.096 20.6907 137.518 20.5147 137.923 20.28C138.339 20.0453 138.739 19.752 139.123 19.4L139.523 19.864C138.936 20.6533 138.339 21.3093 137.731 21.832C137.123 22.344 136.478 22.728 135.795 22.984C135.112 23.2293 134.376 23.352 133.587 23.352C132.254 23.352 131.07 23.048 130.035 22.44C129.011 21.8213 128.206 20.9627 127.619 19.864C127.043 18.7653 126.755 17.4853 126.755 16.024C126.755 14.616 127.027 13.3253 127.571 12.152C128.115 10.968 128.904 10.024 129.939 9.32C130.974 8.60533 132.222 8.248 133.683 8.248Z" fill="white"/>
</svg>
