<svg id="visual" viewBox="0 0 900 600" width="900" height="600" xmlns="http://www.w3.org/2000/svg" xmlns:xlink="http://www.w3.org/1999/xlink" version="1.1"><path d="M0 121L150 157L300 103L450 139L600 139L750 127L900 127L900 0L750 0L600 0L450 0L300 0L150 0L0 0Z" fill="#535453"></path><path d="M0 157L150 187L300 127L450 175L600 163L750 163L900 163L900 125L750 125L600 137L450 137L300 101L150 155L0 119Z" fill="#5c5e5c"></path><path d="M0 175L150 205L300 151L450 199L600 187L750 181L900 193L900 161L750 161L600 161L450 173L300 125L150 185L0 155Z" fill="#666866"></path><path d="M0 217L150 235L300 205L450 253L600 241L750 211L900 223L900 191L750 179L600 185L450 197L300 149L150 203L0 173Z" fill="#6f7270"></path><path d="M0 283L150 289L300 283L450 337L600 331L750 307L900 289L900 221L750 209L600 239L450 251L300 203L150 233L0 215Z" fill="#787c7a"></path><path d="M0 355L150 361L300 331L450 379L600 385L750 355L900 343L900 287L750 305L600 329L450 335L300 281L150 287L0 281Z" fill="#828785"></path><path d="M0 385L150 391L300 355L450 409L600 403L750 391L900 373L900 341L750 353L600 383L450 377L300 329L150 359L0 353Z" fill="#8c9290"></path><path d="M0 499L150 481L300 505L450 505L600 475L750 499L900 505L900 371L750 389L600 401L450 407L300 353L150 389L0 383Z" fill="#959c9a"></path><path d="M0 529L150 511L300 535L450 523L600 511L750 523L900 541L900 503L750 497L600 473L450 503L300 503L150 479L0 497Z" fill="#9fa7a5"></path><path d="M0 559L150 571L300 571L450 577L600 571L750 571L900 577L900 539L750 521L600 509L450 521L300 533L150 509L0 527Z" fill="#a9b2b1"></path><path d="M0 601L150 601L300 601L450 601L600 601L750 601L900 601L900 575L750 569L600 569L450 575L300 569L150 569L0 557Z" fill="#b3bdbc"></path></svg>